<?xml version="1.0" encoding="UTF-8" standalone="no"?>
<!-- Generator: Adobe Illustrator 18.0.0, SVG Export Plug-In . SVG Version: 6.00 Build 0)  -->

<svg
   xmlns:dc="http://purl.org/dc/elements/1.1/"
   xmlns:cc="http://creativecommons.org/ns#"
   xmlns:rdf="http://www.w3.org/1999/02/22-rdf-syntax-ns#"
   xmlns:svg="http://www.w3.org/2000/svg"
   xmlns="http://www.w3.org/2000/svg"
   xmlns:xlink="http://www.w3.org/1999/xlink"
   xmlns:sodipodi="http://sodipodi.sourceforge.net/DTD/sodipodi-0.dtd"
   xmlns:inkscape="http://www.inkscape.org/namespaces/inkscape"
   version="1.1"
   id="Layer_1"
   x="0px"
   y="0px"
   viewBox="0 0 930 100"
   enable-background="new 0 0 976 149"
   xml:space="preserve"
   inkscape:version="0.91 r13725"
   sodipodi:docname="logo--cb--color.svg"
   width="930"
   height="100"><metadata
     id="metadata123"><rdf:RDF><cc:Work
         rdf:about=""><dc:format>image/svg+xml</dc:format><dc:type
           rdf:resource="http://purl.org/dc/dcmitype/StillImage" /><dc:title></dc:title></cc:Work></rdf:RDF></metadata><defs
     id="defs121" /><sodipodi:namedview
     pagecolor="#ffffff"
     bordercolor="#666666"
     borderopacity="1"
     objecttolerance="10"
     gridtolerance="10"
     guidetolerance="10"
     inkscape:pageopacity="0"
     inkscape:pageshadow="2"
     inkscape:window-width="1920"
     inkscape:window-height="1151"
     id="namedview119"
     showgrid="false"
     inkscape:zoom="1.1803279"
     inkscape:cx="398.23714"
     inkscape:cy="39.134456"
     inkscape:window-x="0"
     inkscape:window-y="25"
     inkscape:window-maximized="1"
     inkscape:current-layer="Layer_1"
     fit-margin-top="0"
     fit-margin-left="0"
     fit-margin-right="0"
     fit-margin-bottom="0" /><g
     id="g3"
     transform="translate(-14.2,-20.9)"><defs
       id="defs5"><rect
         id="SVGID_1_"
         x="14.2"
         y="20.9"
         width="102.9"
         height="100" /></defs><clipPath
       id="SVGID_2_"><use
         xlink:href="#SVGID_1_"
         overflow="visible"
         id="use9"
         style="overflow:visible"
         x="0"
         y="0"
         width="100%"
         height="100%" /></clipPath><path
       clip-path="url(#SVGID_2_)"
       d="m 117.2,20.9 0,100 -53,0 c -27.6,0 -50,-22.4 -50,-50 0,-27.6 22.4,-50 50,-50 l 53,0 z"
       id="path11"
       inkscape:connector-curvature="0"
       style="fill:#182642" /><path
       clip-path="url(#SVGID_2_)"
       d="m 76.1,66.2 c -1.9,-4.7 -6.5,-8 -11.8,-8 -7,0 -12.7,5.7 -12.7,12.7 0,7 5.7,12.7 12.7,12.7 5.3,0 9.9,-3.3 11.8,-7.9 l 32.3,0 C 106,97.9 87.2,115.2 64.3,115.2 l 0,3.5 c -26,0 -47.8,-21.8 -47.8,-47.8 0,-26 21.8,-47.8 47.8,-47.8 l 0,3.5 c 22.9,0 41.7,17.4 44.1,39.6 l -32.3,0 z"
       id="path13"
       inkscape:connector-curvature="0"
       style="fill:#ffffff" /><path
       clip-path="url(#SVGID_2_)"
       d="M 63.5,86.5 C 59.7,86.3 56.3,84.8 53.7,82.4 L 34.1,102 c 7.6,7.4 18,12 29.4,12.2 l 0,-27.7 z"
       id="path15"
       inkscape:connector-curvature="0"
       style="fill:#079b75" /><path
       clip-path="url(#SVGID_2_)"
       d="m 52.7,81.4 c -2.5,-2.8 -4.1,-6.5 -4.1,-10.5 0,-4 1.5,-7.7 4,-10.5 L 33.1,40.8 C 25.6,48.6 21,59.2 21,70.9 21,82.6 25.6,93.2 33.2,101 L 52.7,81.4 Z"
       id="path17"
       inkscape:connector-curvature="0"
       style="fill:#2b7bb9" /><path
       clip-path="url(#SVGID_2_)"
       d="M 63.5,27.6 C 52.1,27.8 41.7,32.4 34.1,39.8 l 19.6,19.6 c 2.6,-2.4 6,-3.9 9.8,-4.1 l 0,-27.7 z"
       id="path19"
       inkscape:connector-curvature="0"
       style="fill:#fdb817" /><path
       clip-path="url(#SVGID_2_)"
       d="m 63.5,100.1 0,3.7 c 0,0 0,0 0,0 l 0,-3.7 c 0,0 0,0 0,0"
       id="path21"
       inkscape:connector-curvature="0"
       style="fill:#ffffff" /><path
       clip-path="url(#SVGID_2_)"
       d="m 63.5,96.7 0,1.6 c 0,0 0,0 0,0 l 0,-1.6 c 0,0 0,0 0,0"
       id="path23"
       inkscape:connector-curvature="0"
       style="fill:#ffffff" /><path
       clip-path="url(#SVGID_2_)"
       d="m 63.5,27.9 0,2.8 c 0,0 0,0 0,0 l 0,-2.8 c 0,0 0,0 0,0"
       id="path25"
       inkscape:connector-curvature="0"
       style="fill:#ffffff" /><path
       clip-path="url(#SVGID_2_)"
       d="m 63.5,31.9 0,4.4 c 0,0 0,0 0,0 l 0,-4.4 c 0,0 0,0 0,0"
       id="path27"
       inkscape:connector-curvature="0"
       style="fill:#ffffff" /><path
       clip-path="url(#SVGID_2_)"
       d="m 34.3,101.9 -0.1,0.1 c 0.3,0.3 0.6,0.6 0.9,0.8 -0.3,-0.2 -0.6,-0.6 -0.8,-0.9"
       id="path29"
       inkscape:connector-curvature="0"
       style="fill:#007558" /><g
       clip-path="url(#SVGID_2_)"
       id="g31"><path
         d="m 60.5,27.7 c -3.7,0.3 -7.3,1.1 -10.6,2.3 1.7,-0.2 3.4,-0.4 5.1,-0.4 2.9,0 5.8,0.4 8.6,1.1 l 0,-2.8 c -1.1,-0.1 -2.1,-0.2 -3.1,-0.2"
         id="path33"
         inkscape:connector-curvature="0"
         style="fill:#f79d26" /><path
         d="m 55.3,30.9 c -4.6,0 -9.1,1 -13.3,2.8 -2.9,1.7 -5.5,3.8 -7.9,6.1 l 0.3,0.3 c 5.6,-3.5 12.1,-5.4 18.7,-5.4 3.5,0 7,0.5 10.4,1.6 l 0,-4.4 c -2.7,-0.7 -5.5,-1 -8.2,-1"
         id="path35"
         inkscape:connector-curvature="0"
         style="fill:#f79d26" /><path
         d="m 52.8,35.9 c -6.4,0 -12.4,1.9 -17.5,5.1 l 2.8,2.8 C 42.8,41.4 48.2,40 53.9,40 c 3.3,0 6.5,0.5 9.5,1.3 l 0,-3.7 c -3.3,-1 -6.8,-1.7 -10.6,-1.7"
         id="path37"
         inkscape:connector-curvature="0"
         style="fill:#f79d26" /><path
         d="m 53.2,41.6 c -4.8,0 -9.6,1 -14.1,3.2 l 3,3 c 4.9,-2.4 10.1,-3.5 15.3,-3.5 2.1,0 4.1,0.2 6.1,0.5 l 0,-1.6 C 60.2,42.1 56.7,41.6 53.2,41.6"
         id="path39"
         inkscape:connector-curvature="0"
         style="fill:#f79d26" /><path
         d="m 56.5,46.2 c -4.5,0 -9,0.9 -13.2,2.8 l 1.8,1.8 c 4.3,-2.5 9.1,-4 14.1,-4.5 -0.9,-0.1 -1.8,-0.1 -2.7,-0.1"
         id="path41"
         inkscape:connector-curvature="0"
         style="fill:#f79d26" /></g><g
       clip-path="url(#SVGID_2_)"
       id="g43"><path
         d="m 46.7,89.5 -0.4,0.4 c 3.9,6.4 10,11.3 17.2,13.8 l 0,-3.7 C 56.9,98.2 51.1,94.5 46.7,89.5"
         id="path45"
         inkscape:connector-curvature="0"
         style="fill:#007558" /><path
         d="m 55.1,94.1 c 2.6,1.8 5.5,3.2 8.4,4.2 l 0,-1.6 c -2.9,-0.5 -5.7,-1.4 -8.4,-2.6"
         id="path47"
         inkscape:connector-curvature="0"
         style="fill:#007558" /><path
         d="m 37.8,98.3 -2.7,2.7 c 2.6,3.5 5.9,6.5 9.6,8.7 3.9,1.9 8,3.3 12.4,4 -8,-2.6 -14.9,-8.2 -19.3,-15.4"
         id="path49"
         inkscape:connector-curvature="0"
         style="fill:#007558" /><path
         d="m 41.8,94.4 -3,3 c 5.4,9.4 14.8,15 24.8,16.2 l 0,-2.8 C 54.7,108.5 46.7,102.9 41.8,94.4"
         id="path51"
         inkscape:connector-curvature="0"
         style="fill:#007558" /><path
         d="m 44.9,91.3 -2,2 c 2.8,5.2 7,9.7 12.5,12.9 2.6,1.5 5.3,2.6 8.1,3.3 l 0,-4.4 C 61.1,104.3 58.7,103.3 56.4,102 51.6,99.3 47.8,95.6 44.9,91.3"
         id="path53"
         inkscape:connector-curvature="0"
         style="fill:#007558" /></g><g
       clip-path="url(#SVGID_2_)"
       id="g55"><path
         d="m 34.1,41.8 c -2.5,1.7 -4.7,3.8 -6.6,6.1 -2.4,3.8 -4.1,7.9 -5.3,12.4 3.1,-6.7 8.2,-12.2 14.6,-15.8 l -2.7,-2.7 z"
         id="path57"
         inkscape:connector-curvature="0"
         style="fill:#205d8c" /><path
         d="m 37.7,45.5 c -0.3,0.2 -0.6,0.3 -0.9,0.5 -8.7,5 -14.2,13.5 -15.8,22.7 0,0.7 -0.1,1.5 -0.1,2.2 0,4.1 0.6,8.2 1.7,12 -1.3,-13.3 5,-26.8 17.3,-33.9 0.3,-0.2 0.5,-0.3 0.8,-0.5 l -3,-3 z"
         id="path59"
         inkscape:connector-curvature="0"
         style="fill:#205d8c" /><path
         d="m 41.9,49.6 c -5.6,2.8 -10.5,7.2 -13.8,13 -5.3,9.2 -5.7,19.9 -1.9,29 1.9,3.4 4.2,6.6 6.9,9.4 l 0.3,-0.3 C 26.2,90 25.3,75.6 32.2,63.7 c 2.9,-5.1 7,-9.2 11.6,-12.1 l -1.9,-2 z"
         id="path61"
         inkscape:connector-curvature="0"
         style="fill:#205d8c" /><path
         d="m 45.2,53 c -9.9,5.7 -16.5,16.3 -16.5,28.5 0,6.8 2.1,13.1 5.6,18.3 L 37.1,97 c -2.7,-5 -4.2,-10.7 -4.2,-16.7 0,-10.9 4.9,-20.6 12.7,-27 L 45.2,53 Z"
         id="path63"
         inkscape:connector-curvature="0"
         style="fill:#205d8c" /><path
         d="M 40.2,62.3 C 33.4,72 32.2,85 38,96.1 l 3,-3 C 35.8,83.2 35.8,71.8 40.2,62.3"
         id="path65"
         inkscape:connector-curvature="0"
         style="fill:#205d8c" /><path
         d="m 39.1,75.1 c -0.5,5.8 0.6,11.6 3.1,16.8 L 44.1,90 c -2.8,-4.5 -4.5,-9.6 -5,-14.9"
         id="path67"
         inkscape:connector-curvature="0"
         style="fill:#205d8c" /></g></g><g
     id="g71"
     transform="translate(-14.2,-20.9)"><g
       id="g73"><g
         id="g75"><path
           style="fill:#182642"
           inkscape:connector-curvature="0"
           id="path77"
           d="m 179.5,107.1 c -21.3,0 -37.1,-16.1 -37.1,-36.5 l 0,-0.2 c 0,-20.2 15.5,-36.7 37.7,-36.7 13.6,0 21.8,4.5 28.5,10.9 l -10.1,11.5 c -5.6,-5 -11.3,-8 -18.5,-8 -12.2,0 -21,9.9 -21,22.1 l 0,0.2 c 0,12.2 8.6,22.3 21,22.3 8.3,0 13.3,-3.2 19,-8.3 l 10.1,10 c -7.4,7.8 -15.6,12.7 -29.6,12.7 z" /></g><path
         style="fill:#182642"
         inkscape:connector-curvature="0"
         id="path79"
         d="m 323.7,81.2 c 9.2,-3.4 15.5,-10.7 15.5,-22.4 l 0,-0.2 C 339.2,43.7 329,34.7 311.9,34.7 l -33.1,0 0,72.3 15.9,0 0,-23.1 12.5,0 15.5,23.1 18.6,0 -17.6,-25.8 z m -0.6,-21.6 c 0,6.1 -4.4,10.2 -12.2,10.2 l -16.1,0 0,-20.7 15.8,0 c 7.7,0 12.5,3.5 12.5,10.3 l 0,0.2 z" /><path
         style="fill:#182642"
         inkscape:connector-curvature="0"
         id="path81"
         d="m 512.1,81.2 c 9.2,-3.4 15.5,-10.7 15.5,-22.4 l 0,-0.2 c 0,-14.9 -10.2,-23.9 -27.3,-23.9 l -33.1,0 0,72.3 15.9,0 0,-23.1 12.5,0 15.5,23.1 18.6,0 -17.6,-25.8 z m -0.7,-21.6 c 0,6.1 -4.4,10.2 -12.2,10.2 l -16.1,0 0,-20.7 15.8,0 c 7.7,0 12.5,3.5 12.5,10.3 l 0,0.2 z" /><path
         style="fill:#182642"
         inkscape:connector-curvature="0"
         id="path83"
         d="m 256.2,35.7 c -3.5,-1.3 -7.5,-2 -12,-2 l -1.9,0 c -4.5,0 -8.5,0.7 -12,2 -10,3.7 -15.8,12.1 -15.8,23.1 l 0,0.2 0,48 16.3,0 0,-22.9 24.9,0 0,22.9 16.3,0 0,-48 0,-0.2 c 0,-11 -5.8,-19.4 -15.8,-23.1 z m -25.5,34.2 0,-10.9 c 0,-7 4.9,-10.7 12.6,-10.9 7.7,0.1 12.5,3.9 12.6,10.9 l 0,10.9 -25.2,0 z" /><polygon
         style="fill:#182642"
         id="polygon85"
         points="400.4,34.7 345.3,34.7 345.3,107.1 400.4,107.1 400.4,92.9 361.1,92.9 361.1,83.9 395.1,83.9 395.1,69.7 361.1,69.7 361.1,48.9 400.4,48.9 " /><polygon
         style="fill:#182642"
         id="polygon87"
         points="461.3,34.7 406.3,34.7 406.3,107.1 461.3,107.1 461.3,92.9 422.1,92.9 422.1,83.9 456.1,83.9 456.1,69.7 422.1,69.7 422.1,48.9 461.3,48.9 " /></g><g
       id="g89"><path
         style="fill:#182642"
         inkscape:connector-curvature="0"
         id="path91"
         d="m 577.8,69.9 c 5.9,-2.4 12.3,-7.3 12.3,-17.1 l 0,-0.2 c 0,-10.8 -9.4,-17.7 -23.4,-17.7 l -29.7,0 0,72.1 31.3,0 c 15.5,0 25.8,-7.6 25.8,-19.7 l 0,-0.2 c 0,-10 -7.6,-15 -16.3,-17.2 z m -35.5,-30.1 24.3,0 c 11.5,0 18,5.4 18,13.3 l 0,0.2 c 0,9.6 -7.7,14.7 -18.5,14.7 l -23.8,0 0,-28.2 z m 46.4,47.5 c 0,9.1 -7.8,14.7 -20.2,14.7 l -26.1,0 0,-29 24.4,0 c 14.2,0 21.9,5.3 21.9,14.1 l 0,0.2 z" /><g
         id="g93"><path
           style="fill:#182642"
           inkscape:connector-curvature="0"
           id="path95"
           d="m 632,108.1 c -17.3,0 -29.5,-10.9 -29.5,-31.1 l 0,-42.1 5.4,0 0,41.6 c 0,17 9.2,26.8 24.4,26.8 14.6,0 24,-8.9 24,-26.3 l 0,-42.1 5.4,0 0,41.5 C 661.6,97 649.5,108.1 632,108.1 Z" /></g><g
         id="g97"><rect
           style="fill:#182642"
           id="rect99"
           height="72.099998"
           width="5.4000001"
           y="34.900002"
           x="677.5" /></g><g
         id="g101"><polygon
           style="fill:#182642"
           id="polygon103"
           points="698.7,34.9 704.1,34.9 704.1,102 746.4,102 746.4,106.9 698.7,106.9 " /></g><path
         style="fill:#182642"
         inkscape:connector-curvature="0"
         id="path105"
         d="m 778.7,34.9 -24,0 0,72.1 24,0 C 801.3,107 817,91.2 817,71 l 0,-0.2 C 817,50.4 801.3,34.9 778.7,34.9 Z m 32.7,36.2 c 0,17.2 -12.7,30.9 -32.7,30.9 l -18.6,0 0,-62.2 18.6,0 c 20.1,0 32.7,14 32.7,31.1 l 0,0.2 z" /><g
         id="g107"><polygon
           style="fill:#182642"
           id="polygon109"
           points="872.1,72.9 830.8,72.9 830.8,102 877.3,102 877.3,106.9 825.5,106.9 825.5,34.9 876.7,34.9 876.7,39.8 830.8,39.8 830.8,68 872.1,68 " /></g><path
         style="fill:#182642"
         inkscape:connector-curvature="0"
         id="path111"
         d="m 919.4,72.9 c 9.8,-0.7 19.6,-5 19.3,-19.9 -0.2,-13 -9.5,-18.3 -23.5,-18.3 l -29.8,0 0,72.1 5.4,0 0,-0.1 0,-4.9 0,-28.9 c 0,0 18.9,0 20.5,0 l 1.5,0 24.6,34 6.8,0 -24.8,-34 z m -28.6,-4.9 0,-28.3 24.3,0 c 11.5,0 17.7,4.3 18,13.3 0.4,11.5 -6.5,15 -18.5,15 -8.3,0 -23.8,0 -23.8,0 z" /></g></g></svg>
